<?xml version="1.0" encoding="UTF-8" standalone="no" ?>
<!DOCTYPE svg PUBLIC "-//W3C//DTD SVG 1.1//EN" "http://www.w3.org/Graphics/SVG/1.1/DTD/svg11.dtd">
<svg xmlns="http://www.w3.org/2000/svg" xmlns:xlink="http://www.w3.org/1999/xlink" version="1.1" width="40" height="40" viewBox="0 0 40 40" xml:space="preserve">
<desc>Created with Fabric.js 4.6.0</desc>
<defs>
</defs>
<g transform="matrix(0.96 0 0 0.97 19.92 19.94)" id="CeBDeRtJnQ6PSV8jmjQ_C"  >
<path style="stroke: rgb(0,0,0); stroke-width: 2; stroke-dasharray: none; stroke-linecap: butt; stroke-dashoffset: 0; stroke-linejoin: miter; stroke-miterlimit: 4; fill: rgb(255,255,255); fill-opacity: 0; fill-rule: nonzero; opacity: 1;" vector-effect="non-scaling-stroke"  transform=" translate(0, 0)" d="M 0 -19.5 C 10.764 -19.5 19.5 -10.764 19.5 0 C 19.5 10.764 10.764 19.5 0 19.5 C -10.764 19.5 -19.5 10.764 -19.5 0 C -19.5 -10.764 -10.764 -19.5 0 -19.5 z" stroke-linecap="round" />
</g>
<g transform="matrix(0 0.24 -0.2 0 18.17 19.99)" id="gWMAjnl6gQZhB02pQEkEL"  >
<path style="stroke: rgb(0,0,0); stroke-width: 2; stroke-dasharray: none; stroke-linecap: butt; stroke-dashoffset: 0; stroke-linejoin: miter; stroke-miterlimit: 4; fill: rgb(179,181,179); fill-opacity: 0; fill-rule: nonzero; opacity: 1;" vector-effect="non-scaling-stroke"  transform=" translate(0, 0)" d="M 19.93171 -0.05248 L 39.79155 39.66721 L 39.79155 39.66721 C 39.819990000000004 39.72409 39.82107 39.795289999999994 39.79436 39.85341 C 39.76766 39.91153 39.71734 39.94752 39.662769999999995 39.94752 L -0.06829000000000462 39.94752 L -39.51923000000001 39.94752 L -39.51923000000001 39.94752 C -39.62773000000001 39.94752 -39.72744000000001 39.868249999999996 -39.77871000000001 39.74122 C -39.82999000000001 39.61419 -39.824520000000014 39.45999 -39.76449000000001 39.339929999999995 L -20.068290000000008 -0.05247000000000668 L -0.1498000000000097 -39.889450000000004 L -0.1498000000000097 -39.889450000000004 C -0.1316600000000097 -39.925720000000005 -0.1010600000000097 -39.947520000000004 -0.0682900000000097 -39.947520000000004 C -0.03551000000000971 -39.947520000000004 -0.004910000000009698 -39.925720000000005 0.013219999999990295 -39.889450000000004 z" stroke-linecap="round" />
</g>
<g transform="matrix(1 0 0 1 29.16 9.31)" id="mntem_jj3aJHCjehoWZ7Z"  >
<path style="stroke: rgb(0,0,0); stroke-width: 1; stroke-dasharray: none; stroke-linecap: butt; stroke-dashoffset: 0; stroke-linejoin: miter; stroke-miterlimit: 4; fill: rgb(255,255,255); fill-opacity: 0; fill-rule: nonzero; opacity: 1;" vector-effect="non-scaling-stroke"  transform=" translate(0, 0)" d="M 0 0" stroke-linecap="round" />
</g>
<g transform="matrix(1 0 0 1 25.83 9.81)" id="6joYUw3gJmJKYuvINIH6z"  >
<path style="stroke: rgb(0,0,0); stroke-width: 1; stroke-dasharray: none; stroke-linecap: butt; stroke-dashoffset: 0; stroke-linejoin: miter; stroke-miterlimit: 4; fill: rgb(255,255,255); fill-opacity: 0; fill-rule: nonzero; opacity: 1;" vector-effect="non-scaling-stroke"  transform=" translate(0, 0)" d="M 0 0" stroke-linecap="round" />
</g>
<g transform="matrix(0.04 0 0 0.85 28 19.67)" id="59IPY_90W7zuOQuC89xK5"  >
<path style="stroke: rgb(0,0,0); stroke-width: 1; stroke-dasharray: none; stroke-linecap: butt; stroke-dashoffset: 0; stroke-linejoin: miter; stroke-miterlimit: 4; fill: rgb(255,255,255); fill-opacity: 0; fill-rule: nonzero; opacity: 1;" vector-effect="non-scaling-stroke"  transform=" translate(0, 0)" d="M -12.26666 -11.90532 C -12.26666 -12.10489 -8.7736 -12.26667 -4.46469 -12.26667 L 4.4647 -12.26667 L 4.4647 -12.26667 C 8.77361 -12.26667 12.26667 -12.10489 12.26667 -11.90532 L 12.26667 11.90531 L 12.26667 11.90531 C 12.26667 12.10488 8.77361 12.26666 4.4647 12.26666 L -4.46469 12.26666 L -4.46469 12.26666 C -8.7736 12.26666 -12.26666 12.10488 -12.26666 11.90531 z" stroke-linecap="round" />
</g>
</svg>