<?xml version="1.0" encoding="UTF-8" standalone="no"?>
<svg
   version="1.1"
   width="32"
   height="32"
   viewBox="0 0 32 32"
   xml:space="preserve"
   id="svg21"
   sodipodi:docname="playPrevious.svg"
   inkscape:version="1.1 (c68e22c387, 2021-05-23)"
   xmlns:inkscape="http://www.inkscape.org/namespaces/inkscape"
   xmlns:sodipodi="http://sodipodi.sourceforge.net/DTD/sodipodi-0.dtd"
   xmlns="http://www.w3.org/2000/svg"
   xmlns:svg="http://www.w3.org/2000/svg"><sodipodi:namedview
   id="namedview23"
   pagecolor="#ffffff"
   bordercolor="#666666"
   borderopacity="1.0"
   inkscape:pageshadow="2"
   inkscape:pageopacity="0.0"
   inkscape:pagecheckerboard="0"
   showgrid="false"
   inkscape:zoom="21.8"
   inkscape:cx="19.977064"
   inkscape:cy="16.353211"
   inkscape:window-width="1920"
   inkscape:window-height="1057"
   inkscape:window-x="1016"
   inkscape:window-y="-8"
   inkscape:window-maximized="1"
   inkscape:current-layer="svg21" />
<desc
   id="desc2">Created with Fabric.js 4.6.0</desc>
<defs
   id="defs4">
</defs>
<g
   transform="matrix(-0.7804878,0,0,0.78861789,16,16.166667)"
   id="CeBDeRtJnQ6PSV8jmjQ_C">
<path
   style="opacity:1;fill:#ffffff;fill-opacity:0;fill-rule:nonzero;stroke:#000000;stroke-width:2;stroke-linecap:butt;stroke-linejoin:miter;stroke-miterlimit:4;stroke-dasharray:none;stroke-dashoffset:0"
   vector-effect="non-scaling-stroke"
   d="m 0,-19.5 c 10.764,0 19.5,8.736 19.5,19.5 0,10.764 -8.736,19.5 -19.5,19.5 -10.764,0 -19.5,-8.736 -19.5,-19.5 0,-10.764 8.736,-19.5 19.5,-19.5 z"
   stroke-linecap="round"
   id="path6" />
</g>
<g
   transform="matrix(0,0.24,0.2,0,21.67,19.99)"
   id="gWMAjnl6gQZhB02pQEkEL">
<path
   style="opacity:1;fill:#b3b5b3;fill-opacity:0;fill-rule:nonzero;stroke:#000000;stroke-width:1.62602;stroke-linecap:butt;stroke-linejoin:miter;stroke-miterlimit:4;stroke-dasharray:none;stroke-dashoffset:0"
   vector-effect="non-scaling-stroke"
   d="M 0.62977778,-20.303236 16.775989,11.989195 v 0 c 0.02312,0.04624 0.024,0.10413 0.0023,0.151382 -0.02171,0.04725 -0.06262,0.07651 -0.106984,0.07651 h -32.30169 -32.073935 v 0 c -0.08821,0 -0.169276,-0.06445 -0.210959,-0.167723 -0.04169,-0.103277 -0.03724,-0.228642 0.01156,-0.326252 l 16.013171,-32.026342 16.193894,-32.387788 v 0 c 0.01475,-0.02949 0.03963,-0.04721 0.06627,-0.04721 0.02665,0 0.05153,0.01772 0.06627,0.04721 z"
   stroke-linecap="round"
   id="path9" />
</g>
<g
   transform="matrix(-1,0,0,1,10.68,9.31)"
   id="mntem_jj3aJHCjehoWZ7Z">
<path
   style="opacity:1;fill:#ffffff;fill-opacity:0;fill-rule:nonzero;stroke:#000000;stroke-width:1;stroke-linecap:butt;stroke-linejoin:miter;stroke-miterlimit:4;stroke-dasharray:none;stroke-dashoffset:0"
   vector-effect="non-scaling-stroke"
   d="M 0,0"
   stroke-linecap="round"
   id="path12" />
</g>
<g
   transform="matrix(-1,0,0,1,14.01,9.81)"
   id="6joYUw3gJmJKYuvINIH6z">
<path
   style="opacity:1;fill:#ffffff;fill-opacity:0;fill-rule:nonzero;stroke:#000000;stroke-width:1;stroke-linecap:butt;stroke-linejoin:miter;stroke-miterlimit:4;stroke-dasharray:none;stroke-dashoffset:0"
   vector-effect="non-scaling-stroke"
   d="M 0,0"
   stroke-linecap="round"
   id="path15" />
</g>
<g
   transform="matrix(-0.03252033,0,0,0.69105691,9.6260163,15.99187)"
   id="59IPY_90W7zuOQuC89xK5">
<path
   style="opacity:1;fill:#ffffff;fill-opacity:0;fill-rule:nonzero;stroke:#000000;stroke-width:1;stroke-linecap:butt;stroke-linejoin:miter;stroke-miterlimit:4;stroke-dasharray:none;stroke-dashoffset:0"
   vector-effect="non-scaling-stroke"
   d="m -12.26666,-11.90532 c 0,-0.19957 3.49306,-0.36135 7.80197,-0.36135 H 4.4647 v 0 c 4.30891,0 7.80197,0.16178 7.80197,0.36135 v 23.81063 0 c 0,0.19957 -3.49306,0.36135 -7.80197,0.36135 h -8.92939 v 0 c -4.30891,0 -7.80197,-0.16178 -7.80197,-0.36135 z"
   stroke-linecap="round"
   id="path18" />
</g>
</svg>
