<?xml version="1.0" encoding="UTF-8" standalone="no"?>
<svg
   version="1.1"
   width="32"
   height="32"
   viewBox="0 0 32 32"
   xml:space="preserve"
   id="svg21"
   sodipodi:docname="playNext.svg"
   inkscape:version="1.1 (c68e22c387, 2021-05-23)"
   xmlns:inkscape="http://www.inkscape.org/namespaces/inkscape"
   xmlns:sodipodi="http://sodipodi.sourceforge.net/DTD/sodipodi-0.dtd"
   xmlns="http://www.w3.org/2000/svg"
   xmlns:svg="http://www.w3.org/2000/svg"><sodipodi:namedview
   id="namedview23"
   pagecolor="#ffffff"
   bordercolor="#666666"
   borderopacity="1.0"
   inkscape:pageshadow="2"
   inkscape:pageopacity="0.0"
   inkscape:pagecheckerboard="0"
   showgrid="false"
   width="32px"
   inkscape:zoom="21.8"
   inkscape:cx="19.977064"
   inkscape:cy="5.3440367"
   inkscape:window-width="1920"
   inkscape:window-height="1057"
   inkscape:window-x="1016"
   inkscape:window-y="-8"
   inkscape:window-maximized="1"
   inkscape:current-layer="svg21" />
<desc
   id="desc2">Created with Fabric.js 4.6.0</desc>
<defs
   id="defs4">
</defs>
<g
   transform="matrix(0.7804878,0,0,0.77594528,16.003122,15.902578)"
   id="CeBDeRtJnQ6PSV8jmjQ_C">
<path
   style="opacity:1;fill:#ffffff;fill-opacity:0;fill-rule:nonzero;stroke:#000000;stroke-width:2;stroke-linecap:butt;stroke-linejoin:miter;stroke-miterlimit:4;stroke-dasharray:none;stroke-dashoffset:0"
   vector-effect="non-scaling-stroke"
   d="m 0,-19.5 c 10.764,0 19.5,8.736 19.5,19.5 0,10.764 -8.736,19.5 -19.5,19.5 -10.764,0 -19.5,-8.736 -19.5,-19.5 0,-10.764 8.736,-19.5 19.5,-19.5 z"
   stroke-linecap="round"
   id="path6" />
</g>
<g
   transform="matrix(0,0.24,-0.2,0,18.17,19.99)"
   id="gWMAjnl6gQZhB02pQEkEL">
<path
   style="opacity:1;fill:#b3b5b3;fill-opacity:0;fill-rule:nonzero;stroke:#000000;stroke-width:1.61289;stroke-linecap:butt;stroke-linejoin:miter;stroke-miterlimit:4;stroke-dasharray:none;stroke-dashoffset:0"
   vector-effect="non-scaling-stroke"
   d="M -0.92002325,17.905546 14.966728,50.197978 v 0 c 0.02274,0.04625 0.02361,0.10413 0.0022,0.151381 -0.02136,0.04725 -0.06161,0.07652 -0.105264,0.07652 h -31.782587 -31.558526 v 0 c -0.0868,0 -0.166557,-0.06445 -0.20757,-0.167725 -0.04102,-0.103275 -0.03665,-0.228641 0.01137,-0.32625 l 15.755848,-32.026343 15.933668,-32.387789 v 0 c 0.01451,-0.02948 0.03899,-0.04721 0.0652,-0.04721 0.02623,0 0.0507,0.01773 0.0652,0.04721 z"
   stroke-linecap="round"
   id="path9" />
</g>
<g
   transform="translate(29.16,9.31)"
   id="mntem_jj3aJHCjehoWZ7Z">
<path
   style="opacity:1;fill:#ffffff;fill-opacity:0;fill-rule:nonzero;stroke:#000000;stroke-width:1;stroke-linecap:butt;stroke-linejoin:miter;stroke-miterlimit:4;stroke-dasharray:none;stroke-dashoffset:0"
   vector-effect="non-scaling-stroke"
   d="M 0,0"
   stroke-linecap="round"
   id="path12" />
</g>
<g
   transform="translate(25.83,9.81)"
   id="6joYUw3gJmJKYuvINIH6z">
<path
   style="opacity:1;fill:#ffffff;fill-opacity:0;fill-rule:nonzero;stroke:#000000;stroke-width:1;stroke-linecap:butt;stroke-linejoin:miter;stroke-miterlimit:4;stroke-dasharray:none;stroke-dashoffset:0"
   vector-effect="non-scaling-stroke"
   d="M 0,0"
   stroke-linecap="round"
   id="path15" />
</g>
<g
   transform="matrix(0.03252032,0,0,0.67995204,22.572227,15.686594)"
   id="59IPY_90W7zuOQuC89xK5">
<path
   style="opacity:1;fill:#ffffff;fill-opacity:0;fill-rule:nonzero;stroke:#000000;stroke-width:1;stroke-linecap:butt;stroke-linejoin:miter;stroke-miterlimit:4;stroke-dasharray:none;stroke-dashoffset:0"
   vector-effect="non-scaling-stroke"
   d="m -12.26666,-11.90532 c 0,-0.19957 3.49306,-0.36135 7.80197,-0.36135 H 4.4647 v 0 c 4.30891,0 7.80197,0.16178 7.80197,0.36135 v 23.81063 0 c 0,0.19957 -3.49306,0.36135 -7.80197,0.36135 h -8.92939 v 0 c -4.30891,0 -7.80197,-0.16178 -7.80197,-0.36135 z"
   stroke-linecap="round"
   id="path18" />
</g>
</svg>
