<?xml version="1.0" encoding="UTF-8" standalone="no"?>
<svg
   fill="#000000"
   viewBox="0 0 16 16"
   width="32"
   height="32"
   version="1.1"
   id="svg4"
   sodipodi:docname="plusSign.svg"
   inkscape:version="1.1 (c68e22c387, 2021-05-23)"
   xmlns:inkscape="http://www.inkscape.org/namespaces/inkscape"
   xmlns:sodipodi="http://sodipodi.sourceforge.net/DTD/sodipodi-0.dtd"
   xmlns="http://www.w3.org/2000/svg"
   xmlns:svg="http://www.w3.org/2000/svg">
  <defs
     id="defs8" />
  <sodipodi:namedview
     id="namedview6"
     pagecolor="#ffffff"
     bordercolor="#666666"
     borderopacity="1.0"
     inkscape:pageshadow="2"
     inkscape:pageopacity="0.0"
     inkscape:pagecheckerboard="0"
     showgrid="false"
     width="32px"
     inkscape:zoom="14.533333"
     inkscape:cx="29.965596"
     inkscape:cy="29.965596"
     inkscape:window-width="1920"
     inkscape:window-height="1057"
     inkscape:window-x="1016"
     inkscape:window-y="-8"
     inkscape:window-maximized="1"
     inkscape:current-layer="svg4" />
  <path
     d="M 8,0 C 3.582,0 0,3.582 0,8 c 0,4.418 3.582,8 8,8 4.418,0 8,-3.582 8,-8 C 16,3.582 12.418,0 8,0 Z m 4,8.6666667 H 8.6666667 V 12 C 8.6666667,12.368667 8.368,12.666667 8,12.666667 7.632,12.666667 7.3333333,12.368667 7.3333333,12 V 8.6666667 H 4 C 3.632,8.6666667 3.3333333,8.3686667 3.3333333,8 3.3333333,7.6313333 3.632,7.3333333 4,7.3333333 H 7.3333333 V 4 C 7.3333333,3.6313333 7.632,3.3333333 8,3.3333333 c 0.368,0 0.6666667,0.298 0.6666667,0.6666667 V 7.3333333 H 12 c 0.368,0 0.666667,0.298 0.666667,0.6666667 0,0.3686667 -0.298667,0.6666667 -0.666667,0.6666667 z"
     id="path2"
     style="stroke-width:0.666667" />
</svg>
