<?xml version="1.0" encoding="UTF-8"?>
<svg fill="#ffffff" version="1.1" viewBox="0 0 12 12" xmlns="http://www.w3.org/2000/svg">
 <path d="m6 0c-3.31 0-6 2.69-6 6 0 3.31 2.69 6 6 6 3.31 0 6-2.69 6-6 0-3.31-2.69-6-6-6zm0 1.2c2.66 0 4.8 2.14 4.8 4.8 0 2.66-2.14 4.8-4.8 4.8-2.66 0-4.8-2.14-4.8-4.8 0-2.66 2.14-4.8 4.8-4.8zm-2.4 1.8a0.601 0.601 0 0 0-0.601 0.601 0.601 0.601 0 0 0 0.182 0.42l-0.00469 0.00469 1.98 1.98-1.98 1.98 0.00469 0.00465a0.601 0.601 0 0 0-0.182 0.42 0.601 0.601 0 0 0 0.601 0.601 0.601 0.601 0 0 0 0.443-0.196l1.96-1.96 1.98 1.98 0.00465-0.00465a0.601 0.601 0 0 0 0.42 0.182 0.601 0.601 0 0 0 0.601-0.601 0.601 0.601 0 0 0-0.196-0.443l-1.96-1.96 1.96-1.96a0.601 0.601 0 0 0 0.196-0.443 0.601 0.601 0 0 0-0.601-0.601 0.601 0.601 0 0 0-0.42 0.182l-0.00465-0.00469-1.98 1.98-1.96-1.96a0.601 0.601 0 0 0-0.443-0.196z" fill="#fff" stroke-width=".6"/>
</svg>
