<?xml version="1.0" encoding="UTF-8"?>
<svg width="32" height="32" fill="#ffffff" version="1.1" viewBox="0 0 16 16" xmlns="http://www.w3.org/2000/svg">
 <path d="m8 0c-4.41 0-8 3.59-8 8 0 4.41 3.59 8 8 8 4.41 0 8-3.59 8-8 0-4.41-3.59-8-8-8zm0 1.6c3.54 0 6.4 2.86 6.4 6.4s-2.86 6.4-6.4 6.4-6.4-2.86-6.4-6.4 2.86-6.4 6.4-6.4zm-3.2 2.4a0.801 0.801 0 0 0-0.802 0.802 0.801 0.801 0 0 0 0.242 0.559l-0.00625 0.00625 2.63 2.63-2.63 2.63 0.00625 0.0062a0.801 0.801 0 0 0-0.242 0.559 0.801 0.801 0 0 0 0.802 0.802 0.801 0.801 0 0 0 0.591-0.261l2.61-2.61 2.63 2.63 0.0062-0.0062a0.801 0.801 0 0 0 0.559 0.242 0.801 0.801 0 0 0 0.802-0.802 0.801 0.801 0 0 0-0.261-0.591l-2.61-2.61 2.61-2.61a0.801 0.801 0 0 0 0.261-0.591 0.801 0.801 0 0 0-0.802-0.802 0.801 0.801 0 0 0-0.559 0.242l-0.0062-0.00625-2.63 2.63-2.61-2.61a0.801 0.801 0 0 0-0.591-0.261z" fill="#a8a29e" stroke-width=".8"/>
</svg>
