<?xml version="1.0" encoding="UTF-8" standalone="no"?>
<svg
   fill="#ffffff"
   viewBox="0 0 16 16"
   width="32"
   height="32"
   version="1.1"
   id="svg19"
   sodipodi:docname="closeMenu.svg"
   inkscape:version="1.1 (c68e22c387, 2021-05-23)"
   xmlns:inkscape="http://www.inkscape.org/namespaces/inkscape"
   xmlns:sodipodi="http://sodipodi.sourceforge.net/DTD/sodipodi-0.dtd"
   xmlns="http://www.w3.org/2000/svg"
   xmlns:svg="http://www.w3.org/2000/svg">
  <defs
     id="defs23" />
  <sodipodi:namedview
     id="namedview21"
     pagecolor="#ffffff"
     bordercolor="#666666"
     borderopacity="1.0"
     inkscape:pageshadow="2"
     inkscape:pageopacity="0.0"
     inkscape:pagecheckerboard="0"
     showgrid="false"
     showguides="false"
     inkscape:snap-grids="false"
     inkscape:snap-object-midpoints="true"
     inkscape:snap-others="true"
     inkscape:snap-to-guides="false"
     inkscape:snap-midpoints="true"
     inkscape:zoom="6.2537982"
     inkscape:cx="7.2755785"
     inkscape:cy="29.182266"
     inkscape:window-width="1920"
     inkscape:window-height="1057"
     inkscape:window-x="1016"
     inkscape:window-y="-8"
     inkscape:window-maximized="1"
     inkscape:current-layer="svg19"
     width="32px" />
  <path
     id="path17"
     style="fill:#000000;stroke-width:0.8"
     d="M 8,0 C 3.5911976,0 0,3.5911976 0,8 c 0,4.408802 3.5911976,8 8,8 4.408802,0 8,-3.591198 8,-8 C 16,3.5911976 12.408802,0 8,0 Z m 0,1.6 c 3.544098,0 6.4,2.855902 6.4,6.4 0,3.544098 -2.855902,6.4 -6.4,6.4 C 4.455902,14.4 1.6,11.544098 1.6,8 1.6,4.455902 4.455902,1.6 8,1.6 Z M 4.8,3.9984376 A 0.80125976,0.80125976 0 0 0 3.9984376,4.8 0.80125976,0.80125976 0 0 0 4.2406248,5.3593752 l -0.00625,0.00625 L 6.86875,8 l -2.6343748,2.634375 0.00625,0.0062 A 0.80125976,0.80125976 0 0 0 3.9984376,11.2 0.80125976,0.80125976 0 0 0 4.8,12.001562 0.80125976,0.80125976 0 0 0 5.3906248,11.740625 L 8,9.1312504 l 2.634375,2.6343746 0.0062,-0.0062 A 0.80125976,0.80125976 0 0 0 11.2,12.001562 0.80125976,0.80125976 0 0 0 12.001562,11.2 0.80125976,0.80125976 0 0 0 11.740625,10.609375 L 9.1312504,8 11.740625,5.3906248 A 0.80125976,0.80125976 0 0 0 12.001562,4.8 0.80125976,0.80125976 0 0 0 11.2,3.9984376 0.80125976,0.80125976 0 0 0 10.640625,4.2406248 l -0.0062,-0.00625 L 8,6.8687504 5.3906248,4.2593752 A 0.80125976,0.80125976 0 0 0 4.8,3.9984376 Z" />
</svg>
