<?xml version="1.0" encoding="UTF-8"?>
<svg width="24" height="24" version="1.1" viewBox="0 0 24 24" xmlns="http://www.w3.org/2000/svg">
 <path d="m12 4.25e-7c-6.6 0-12 5.38-12 12 0 1.36 0.226 2.63 0.642 3.86l-0.47 0.263v7.75h10c0.583 0.0946 1.18 0.131 1.78 0.131 2.63 0 5.05-0.85 7.06-2.29l-1.11-1.11c-1.69 1.16-3.74 1.86-5.95 1.86-0.583 0-1.15-0.0566-1.71-0.151v-2.82c0.545 0.131 1.11 0.188 1.71 0.188 4.24 0 7.68-3.44 7.68-7.68 0-4.24-3.44-7.68-7.68-7.68-4.24 0-7.68 3.45-7.68 7.68 0 0.564 0.0565 1.12 0.169 1.64l-2.48 1.43c-0.301-0.974-0.47-2-0.47-3.06 0-5.77 4.68-10.4 10.4-10.4 3.36 0 6.35 1.58 8.23 4.05 1.37 1.77 2.19 3.98 2.19 6.39 0 2.22-0.692 4.28-1.88 5.96l1.12 1.11c1.47-2 2.31-4.44 2.31-7.06 0-6.6-5.38-12-12-12zm0 5.87c3.39 0 6.12 2.74 6.12 6.12 0 3.39-2.74 6.12-6.12 6.12-0.583 0-1.16-0.0946-1.71-0.245v-1.77l-4.19-2.41c-0.169-0.545-0.244-1.13-0.244-1.71 0.0188-3.39 2.77-6.12 6.18-6.12zm-6.78 9.05 3.54 2.03v5.31h-7.06v-5.31zm17.6 5.14c-0.747 0.994-1.64 1.88-2.63 2.65l1.21 1.21c0.98-0.775 1.86-1.67 2.63-2.65z" fill="#16a34a" stroke="#16a34a" stroke-miterlimit="0" stroke-width="0"/>
</svg>
