<?xml version="1.0" encoding="UTF-8" standalone="no"?>
<svg
   xmlns:dc="http://purl.org/dc/elements/1.1/"
   xmlns:cc="http://creativecommons.org/ns#"
   xmlns:rdf="http://www.w3.org/1999/02/22-rdf-syntax-ns#"
   xmlns:svg="http://www.w3.org/2000/svg"
   xmlns="http://www.w3.org/2000/svg"
   xml:space="preserve"
   style="enable-background:new 0 0 144 144;"
   viewBox="0 0 144 144"
   y="0px"
   x="0px"
   id="Layer_1"
   version="1.1"><metadata
   id="metadata3118"><rdf:RDF><cc:Work
       rdf:about=""><dc:format>image/svg+xml</dc:format><dc:type
         rdf:resource="http://purl.org/dc/dcmitype/StillImage" /><dc:title></dc:title></cc:Work></rdf:RDF></metadata><defs
   id="defs3116" />
<style
   id="style3107"
   type="text/css">
	.st0{fill:#72BB7D;}
</style>
<path
   id="path3109"
   d="m 135.53652,120.5118 c -4.1,5.2 -8.8,10 -14,14.1 l -6.4,-6.4 c 5.3,-4.1 10,-8.8 14,-14.1 z"
   class="st0"
   style="fill:#059669" />
<path
   id="path3111"
   d="m 8.2,70.9 c 0,7.2 1.2,14 3.4,20.5 L 9.1,92.8 V 134 h 53.4 c 3.1,0.5 6.3,0.7 9.5,0.7 14,0 26.9,-4.5 37.5,-12.2 l -5.9,-5.9 c -9,6.2 -19.9,9.9 -31.6,9.9 -3.1,0 -6.1,-0.3 -9.1,-0.8 v -15 c 2.9,0.7 5.9,1 9.1,1 22.5,0 40.8,-18.3 40.8,-40.8 0,-22.5 -18.3,-40.8 -40.8,-40.8 -22.5,0 -40.8,18.3 -40.8,40.8 0,3 0.3,5.9 0.9,8.7 L 18.9,87.2 C 17.3,82 16.4,76.6 16.4,70.9 16.4,40.2 41.3,15.3 72,15.3 c 30.7,0 55.6,24.9 55.6,55.6 0,11.8 -3.7,22.7 -10,31.7 l 5.9,5.9 C 131.3,97.9 135.8,84.9 135.8,70.9 135.8,35.7 107.2,7.1 72,7.1 36.8,7.1 8.2,35.7 8.2,70.9 Z M 72,38.3 c 18,0 32.6,14.6 32.6,32.6 0,18 -14.6,32.6 -32.6,32.6 -3.1,0 -6.2,-0.5 -9.1,-1.3 V 92.8 L 40.6,80 C 39.7,77.1 39.3,74 39.3,70.9 39.4,52.9 54,38.3 72,38.3 Z M 54.8,97.6 v 28.2 H 17.3 V 97.6 L 36,86.8 Z"
   class="st0"
   style="fill:#059669" />
</svg>
