<?xml version="1.0" encoding="UTF-8" standalone="no"?>
<svg
   xml:space="preserve"
   viewBox="0 0 32 32"
   y="0px"
   x="0px"
   id="Layer_1"
   version="1.1"
   sodipodi:docname="quietavenueLogoGreen.svg"
   width="32"
   height="32"
   inkscape:version="1.1 (c68e22c387, 2021-05-23)"
   xmlns:inkscape="http://www.inkscape.org/namespaces/inkscape"
   xmlns:sodipodi="http://sodipodi.sourceforge.net/DTD/sodipodi-0.dtd"
   xmlns="http://www.w3.org/2000/svg"
   xmlns:svg="http://www.w3.org/2000/svg"
   xmlns:rdf="http://www.w3.org/1999/02/22-rdf-syntax-ns#"
   xmlns:cc="http://creativecommons.org/ns#"
   xmlns:dc="http://purl.org/dc/elements/1.1/"><sodipodi:namedview
   id="namedview8"
   pagecolor="#ffffff"
   bordercolor="#666666"
   borderopacity="1.0"
   inkscape:pageshadow="2"
   inkscape:pageopacity="0.0"
   inkscape:pagecheckerboard="0"
   showgrid="false"
   inkscape:zoom="6.0555556"
   inkscape:cx="71.917431"
   inkscape:cy="32.284404"
   inkscape:window-width="1920"
   inkscape:window-height="1057"
   inkscape:window-x="1016"
   inkscape:window-y="-8"
   inkscape:window-maximized="1"
   inkscape:current-layer="Layer_1" /><metadata
   id="metadata3118"><rdf:RDF><cc:Work
       rdf:about=""><dc:format>image/svg+xml</dc:format><dc:type
         rdf:resource="http://purl.org/dc/dcmitype/StillImage" /></cc:Work></rdf:RDF></metadata><defs
   id="defs3116" />
<style
   id="style3107"
   type="text/css">
	.st0{fill:#72BB7D;}
</style>
<path
   id="path3109"
   style="fill:#059669;stroke-width:0.250781"
   class="st0"
   d="M 16,0 C 7.172522,0 0,7.1725222 0,16.000001 c 0,1.80562 0.30103471,3.510928 0.85275201,5.141002 L 0.22580052,21.492194 V 31.82416 H 13.617584 c 0.77742,0.12539 1.579918,0.175351 2.382416,0.175351 3.510929,0 6.745999,-1.128317 9.404274,-3.059328 L 23.92457,27.460479 c -2.257025,1.55484 -4.990436,2.482826 -7.92457,2.482826 -0.77742,0 -1.529664,-0.07543 -2.282005,-0.20082 v -3.761709 c 0.727263,0.175546 1.479507,0.25078 2.282005,0.25078 5.642564,0 10.232045,-4.588991 10.232045,-10.231555 0,-5.642565 -4.589481,-10.2320464 -10.232045,-10.2320464 -5.642564,0 -10.2320454,4.5894814 -10.2320454,10.2320464 0,0.752341 0.075332,1.479409 0.2258003,2.181595 L 2.6836467,20.087431 C 2.2823977,18.783372 2.0566952,17.42945 2.0566952,16.000001 2.0566952,8.3010351 8.3010348,2.056695 16,2.056695 c 7.698966,0 13.943305,6.2443401 13.943305,13.943306 0,2.959211 -0.927888,5.692524 -2.507806,7.94955 l 1.479704,1.479703 C 30.871292,22.77098 32,19.510929 32,16.000001 32,7.1725222 24.827479,0 16,0 Z m 0,7.8246497 c 4.514052,0 8.175351,3.6612993 8.175351,8.1753513 0,4.514051 -3.661299,8.17535 -8.175351,8.17535 -0.77742,0 -1.554742,-0.125586 -2.282005,-0.32621 V 21.492194 L 8.1253903,18.282006 C 7.8996877,17.554742 7.7996694,16.77742 7.7996694,16.000001 7.8247475,11.485949 11.485949,7.8246497 16,7.8246497 Z M 6.9718975,19.98751 11.686769,22.695647 v 7.072308 H 2.2824955 v -7.072308 z m 23.3568855,6.848957 c -1.003123,1.329137 -2.181792,2.507708 -3.510929,3.535909 l 1.605094,1.605094 c 1.304059,-1.028201 2.482728,-2.23185 3.510929,-3.535909 z" />

</svg>
