<?xml version="1.0" encoding="UTF-8"?>
<svg width="28" height="28" version="1.1" viewBox="0 0 28 28" xmlns="http://www.w3.org/2000/svg">
 <path d="m14 5.08e-7c-7.69 0-14 6.27-14 14 0 1.58 0.263 3.06 0.748 4.5l-0.548 0.306v9.03h11.7c0.679 0.11 1.37 0.153 2.07 0.153 3.06 0 5.88-0.99 8.23-2.67l-1.29-1.29c-1.97 1.35-4.36 2.17-6.93 2.17-0.679 0-1.34-0.066-1.99-0.176v-3.29c0.635 0.153 1.29 0.219 1.99 0.219 4.94 0 8.95-4.01 8.95-8.95 0-4.94-4.01-8.95-8.95-8.95-4.94 0-8.95 4.02-8.95 8.95 0 0.657 0.0658 1.31 0.197 1.91l-2.89 1.67c-0.351-1.13-0.548-2.33-0.548-3.57 0-6.72 5.45-12.1 12.1-12.1 3.92 0 7.4 1.84 9.59 4.72 1.6 2.06 2.55 4.64 2.55 7.45 0 2.59-0.806 4.99-2.19 6.94l1.31 1.29c1.71-2.33 2.69-5.17 2.69-8.23 0-7.69-6.27-14-14-14zm0 6.84c3.95 0 7.13 3.19 7.13 7.13 0 3.95-3.19 7.13-7.13 7.13-0.679 0-1.35-0.11-1.99-0.285v-2.06l-4.88-2.81c-0.197-0.635-0.284-1.32-0.284-1.99 0.0219-3.95 3.23-7.13 7.2-7.13zm-7.9 10.5 4.12 2.37v6.19h-8.23v-6.19zm20.5 5.99c-0.87 1.16-1.91 2.19-3.06 3.09l1.41 1.41c1.14-0.903 2.17-1.95 3.06-3.09z" fill="#16a34a" stroke="#16a34a" stroke-miterlimit="0" stroke-width="0"/>
</svg>
