<?xml version="1.0" encoding="UTF-8" standalone="no"?>
<svg
   xml:space="preserve"
   viewBox="0 0 40 40"
   y="0px"
   x="0px"
   id="Layer_1"
   version="1.1"
   sodipodi:docname="quietavenueLogoWhite.svg"
   width="40"
   height="40"
   inkscape:version="1.1 (c68e22c387, 2021-05-23)"
   xmlns:inkscape="http://www.inkscape.org/namespaces/inkscape"
   xmlns:sodipodi="http://sodipodi.sourceforge.net/DTD/sodipodi-0.dtd"
   xmlns="http://www.w3.org/2000/svg"
   xmlns:svg="http://www.w3.org/2000/svg"
   xmlns:rdf="http://www.w3.org/1999/02/22-rdf-syntax-ns#"
   xmlns:cc="http://creativecommons.org/ns#"
   xmlns:dc="http://purl.org/dc/elements/1.1/"><sodipodi:namedview
   id="namedview8"
   pagecolor="#ffffff"
   bordercolor="#666666"
   borderopacity="1.0"
   inkscape:pageshadow="2"
   inkscape:pageopacity="0.0"
   inkscape:pagecheckerboard="0"
   showgrid="false"
   inkscape:zoom="1.5138889"
   inkscape:cx="29.394495"
   inkscape:cy="-18.165138"
   inkscape:window-width="1920"
   inkscape:window-height="1057"
   inkscape:window-x="1016"
   inkscape:window-y="-8"
   inkscape:window-maximized="1"
   inkscape:current-layer="Layer_1" /><metadata
   id="metadata3118"><rdf:RDF><cc:Work
       rdf:about=""><dc:format>image/svg+xml</dc:format><dc:type
         rdf:resource="http://purl.org/dc/dcmitype/StillImage" /></cc:Work></rdf:RDF></metadata><defs
   id="defs3116" />
<style
   id="style3107"
   type="text/css">
	.st0{fill:#72BB7D;}
</style>
<path
   id="path3109"
   style="fill:#ffffff;stroke-width:0.313476"
   class="st0"
   d="M 20,0 C 8.9656525,0 0,8.9656528 0,20.000001 c 0,2.257025 0.37629339,4.388661 1.06594,6.426253 L 0.28225066,26.865243 V 39.7802 H 17.02198 c 0.971775,0.156738 1.974898,0.219189 2.97802,0.219189 4.388661,0 8.432499,-1.410397 11.755342,-3.82416 l -1.849629,-1.84963 C 27.084431,36.269149 23.667667,37.429132 20,37.429132 c -0.971775,0 -1.912079,-0.09429 -2.852507,-0.251025 V 32.47597 c 0.90908,0.219433 1.849385,0.313476 2.852507,0.313476 7.053206,0 12.790057,-5.73624 12.790057,-12.789445 0,-7.053206 -5.736851,-12.7900578 -12.790057,-12.7900578 -7.053205,0 -12.7900568,5.7368518 -12.7900568,12.7900578 0,0.940427 0.094165,1.849262 0.2822505,2.726994 L 3.3545584,25.109289 C 2.8529972,23.479215 2.5708689,21.786813 2.5708689,20.000001 2.5708689,10.376295 10.376295,2.5708688 20,2.5708688 c 9.623707,0 17.429132,7.8054262 17.429132,17.4291322 0,3.699014 -1.159861,7.115655 -3.134758,9.936937 l 1.849629,1.849629 C 38.589114,28.463724 40,24.388662 40,20.000001 40,8.9656528 31.034348,0 20,0 Z m 0,9.7808121 c 5.642565,0 10.219189,4.5766239 10.219189,10.2191889 0,5.642564 -4.576624,10.219188 -10.219189,10.219188 -0.971775,0 -1.943427,-0.156983 -2.852507,-0.407763 V 26.865243 L 10.156738,22.852508 C 9.8746097,21.943428 9.7495868,20.971776 9.7495868,20.000001 9.7809343,14.357436 14.357436,9.7808121 20,9.7808121 Z M 8.7148718,24.984388 14.608462,28.369559 v 8.840384 H 2.8531194 v -8.840384 z m 29.1961072,8.561196 c -1.253904,1.661421 -2.72724,3.134635 -4.388662,4.419886 l 2.006368,2.006367 c 1.630074,-1.28525 3.10341,-2.789812 4.388661,-4.419886 z" />

</svg>
